<mxfile host="app.diagrams.net" agent="Mozilla/5.0 (Windows NT 10.0; Win64; x64) AppleWebKit/537.36 (KHTML, like Gecko) Chrome/131.0.0.0 Safari/537.36" version="24.8.6">
  <diagram name="Page-1" id="rgZT7IlIaWh9rhsQOg9V">
    <mxGraphModel dx="1434" dy="1872" grid="1" gridSize="10" guides="1" tooltips="1" connect="1" arrows="1" fold="1" page="1" pageScale="1" pageWidth="850" pageHeight="1100" math="0" shadow="0">
      <root>
        <mxCell id="0" />
        <mxCell id="1" parent="0" />
        <mxCell id="rNlwweDkFNH4UufCHaVp-1" value="Bắt đầu" style="ellipse;whiteSpace=wrap;html=1;" vertex="1" parent="1">
          <mxGeometry x="150" y="-720" width="120" height="80" as="geometry" />
        </mxCell>
        <mxCell id="rNlwweDkFNH4UufCHaVp-2" value="" style="endArrow=classic;html=1;rounded=0;" edge="1" parent="1">
          <mxGeometry width="50" height="50" relative="1" as="geometry">
            <mxPoint x="209.5" y="-640" as="sourcePoint" />
            <mxPoint x="210" y="-600" as="targetPoint" />
          </mxGeometry>
        </mxCell>
        <mxCell id="rNlwweDkFNH4UufCHaVp-3" value="Nhập&lt;div&gt;n&lt;/div&gt;" style="rhombus;whiteSpace=wrap;html=1;" vertex="1" parent="1">
          <mxGeometry x="170" y="-600" width="80" height="80" as="geometry" />
        </mxCell>
        <mxCell id="rNlwweDkFNH4UufCHaVp-4" value="" style="endArrow=classic;html=1;rounded=0;" edge="1" parent="1">
          <mxGeometry width="50" height="50" relative="1" as="geometry">
            <mxPoint x="209.5" y="-520" as="sourcePoint" />
            <mxPoint x="210" y="-480" as="targetPoint" />
          </mxGeometry>
        </mxCell>
        <mxCell id="rNlwweDkFNH4UufCHaVp-5" value="n % 2 ==0?" style="rhombus;whiteSpace=wrap;html=1;" vertex="1" parent="1">
          <mxGeometry x="170" y="-480" width="80" height="80" as="geometry" />
        </mxCell>
        <mxCell id="rNlwweDkFNH4UufCHaVp-6" value="" style="endArrow=classic;html=1;rounded=0;" edge="1" parent="1">
          <mxGeometry width="50" height="50" relative="1" as="geometry">
            <mxPoint x="250" y="-440.5" as="sourcePoint" />
            <mxPoint x="340" y="-440.5" as="targetPoint" />
          </mxGeometry>
        </mxCell>
        <mxCell id="rNlwweDkFNH4UufCHaVp-7" value="Số chẵn" style="shape=parallelogram;perimeter=parallelogramPerimeter;whiteSpace=wrap;html=1;fixedSize=1;" vertex="1" parent="1">
          <mxGeometry x="330" y="-470" width="120" height="60" as="geometry" />
        </mxCell>
        <mxCell id="rNlwweDkFNH4UufCHaVp-8" value="Đúng" style="text;html=1;align=center;verticalAlign=middle;resizable=0;points=[];autosize=1;strokeColor=none;fillColor=none;" vertex="1" parent="1">
          <mxGeometry x="270" y="-470" width="50" height="30" as="geometry" />
        </mxCell>
        <mxCell id="rNlwweDkFNH4UufCHaVp-9" value="Số lẻ" style="shape=parallelogram;perimeter=parallelogramPerimeter;whiteSpace=wrap;html=1;fixedSize=1;" vertex="1" parent="1">
          <mxGeometry x="150" y="-360" width="120" height="60" as="geometry" />
        </mxCell>
        <mxCell id="rNlwweDkFNH4UufCHaVp-10" value="" style="endArrow=classic;html=1;rounded=0;" edge="1" parent="1">
          <mxGeometry width="50" height="50" relative="1" as="geometry">
            <mxPoint x="209.5" y="-400" as="sourcePoint" />
            <mxPoint x="210" y="-360" as="targetPoint" />
          </mxGeometry>
        </mxCell>
        <mxCell id="rNlwweDkFNH4UufCHaVp-11" value="" style="endArrow=classic;html=1;rounded=0;" edge="1" parent="1">
          <mxGeometry width="50" height="50" relative="1" as="geometry">
            <mxPoint x="209.5" y="-300" as="sourcePoint" />
            <mxPoint x="210" y="-260" as="targetPoint" />
          </mxGeometry>
        </mxCell>
        <mxCell id="rNlwweDkFNH4UufCHaVp-12" value="Kết thúc" style="ellipse;whiteSpace=wrap;html=1;" vertex="1" parent="1">
          <mxGeometry x="150" y="-260" width="120" height="50" as="geometry" />
        </mxCell>
        <mxCell id="rNlwweDkFNH4UufCHaVp-13" value="Sai" style="text;html=1;align=center;verticalAlign=middle;resizable=0;points=[];autosize=1;strokeColor=none;fillColor=none;rotation=90;" vertex="1" parent="1">
          <mxGeometry x="210" y="-402" width="40" height="30" as="geometry" />
        </mxCell>
        <mxCell id="rNlwweDkFNH4UufCHaVp-14" value="" style="endArrow=classic;html=1;rounded=0;entryX=1;entryY=0.5;entryDx=0;entryDy=0;" edge="1" parent="1" source="rNlwweDkFNH4UufCHaVp-7" target="rNlwweDkFNH4UufCHaVp-12">
          <mxGeometry width="50" height="50" relative="1" as="geometry">
            <mxPoint x="389.5" y="-407" as="sourcePoint" />
            <mxPoint x="390" y="-367" as="targetPoint" />
            <Array as="points">
              <mxPoint x="390" y="-235" />
            </Array>
          </mxGeometry>
        </mxCell>
      </root>
    </mxGraphModel>
  </diagram>
</mxfile>
